<svg width="36" height="36" viewBox="0 0 36 36" fill="none" xmlns="http://www.w3.org/2000/svg">
<path d="M32.3685 10.2826C32.5785 9.58511 32.3685 9.07361 31.3755 9.07361H28.086C27.249 9.07361 26.8665 9.51611 26.6565 10.0021C26.6565 10.0021 24.984 14.0806 22.614 16.7251C21.849 17.4946 21.4995 17.7376 21.0825 17.7376C20.874 17.7376 20.571 17.4946 20.571 16.7971V10.2826C20.571 9.44561 20.3295 9.07361 19.632 9.07361H14.463C13.941 9.07361 13.626 9.46061 13.626 9.82961C13.626 10.6216 14.811 10.8046 14.9325 13.0366V17.8786C14.9325 18.9391 14.742 19.1326 14.322 19.1326C13.2075 19.1326 10.4955 15.0391 8.886 10.3531C8.5725 9.44261 8.256 9.07511 7.416 9.07511H4.128C3.1875 9.07511 3 9.51761 3 10.0036C3 10.8766 4.1145 15.1966 8.1915 20.9101C10.9095 24.8116 14.736 26.9266 18.222 26.9266C20.3115 26.9266 20.5695 26.4571 20.5695 25.6471V22.6981C20.5695 21.7591 20.769 21.5701 21.4305 21.5701C21.9165 21.5701 22.7535 21.8161 24.705 23.6956C26.934 25.9246 27.303 26.9251 28.5555 26.9251H31.8435C32.7825 26.9251 33.252 26.4556 32.982 25.5286C32.6865 24.6061 31.6215 23.2636 30.2085 21.6751C29.4405 20.7691 28.293 19.7941 27.9435 19.3066C27.456 18.6781 27.597 18.4006 27.9435 17.8426C27.945 17.8441 31.9515 12.2011 32.3685 10.2826Z" fill="white"/>
</svg>
