<svg width="33" height="50" viewBox="0 0 33 50" fill="none" xmlns="http://www.w3.org/2000/svg">
<path d="M32.6194 27.6015L28.8187 24.7601L19.9626 14.3173H20.1102V10.7749H21.3279L16.8261 3.39483H16.6047V2.32472H20.2209V0.405904H16.6047V0H15.9774V3.39483H15.756L11.3648 10.7749H12.5825V14.3173H12.4349L3.72645 24.8708L0.0733156 27.6384C-0.0373855 27.7122 0.0364152 27.8967 0.147116 27.8967H32.5456C32.6932 27.8967 32.7301 27.7122 32.6194 27.6015Z" fill="white"/>
<path d="M31.4764 48.3396L30.5539 45.5721L30.2956 30.1108H2.28823L2.02993 45.5721L1.10742 48.3396H11.5133C11.3288 47.6385 11.2181 46.9005 11.2181 46.1256C11.2181 42.5094 13.5059 39.5942 16.3104 39.5942C19.1148 39.5942 21.4026 42.4725 21.4026 46.0887C21.4026 46.8636 21.2919 47.6385 21.1074 48.3027H31.4764V48.3396ZM11.2919 36.5684H9.41V32.1035H11.2919V36.5684ZM17.0853 36.5684H15.2034V32.1035H17.0853V36.5684ZM20.9598 36.5684V32.1035H22.8417V36.5684H20.9598Z" fill="white"/>
</svg>
